<mxfile host="app.diagrams.net" modified="2023-03-10T16:19:03.668Z" agent="5.0 (Windows NT 10.0; Win64; x64) AppleWebKit/537.36 (KHTML, like Gecko) Chrome/110.0.0.0 Safari/537.36 Edg/110.0.1587.63" etag="XhcL9t1LJonCGpY2TQp4" version="21.0.6" type="github">
  <diagram name="Page-1" id="8k7CGDxbE8RUZ36gDLzS">
    <mxGraphModel dx="2261" dy="796" grid="1" gridSize="10" guides="1" tooltips="1" connect="1" arrows="1" fold="1" page="1" pageScale="1" pageWidth="827" pageHeight="1169" math="0" shadow="0">
      <root>
        <mxCell id="0" />
        <mxCell id="1" parent="0" />
        <mxCell id="tDpFDf1y066-vSk2hxzO-13" value="PEARL&lt;br&gt;&lt;br&gt;&lt;br&gt;" style="rounded=0;whiteSpace=wrap;html=1;" parent="1" vertex="1">
          <mxGeometry x="-560" y="90" width="120" height="210" as="geometry" />
        </mxCell>
        <mxCell id="tDpFDf1y066-vSk2hxzO-14" value="DRAMA-QUEEN&lt;br&gt;&lt;br&gt;&lt;br&gt;&lt;br&gt;&lt;br&gt;&lt;br&gt;&lt;br&gt;&lt;br&gt;&lt;br&gt;&lt;br&gt;&lt;br&gt;&lt;br&gt;&lt;br&gt;&lt;br&gt;&lt;br&gt;&lt;br&gt;&lt;br&gt;&lt;br&gt;&lt;br&gt;&lt;br&gt;&lt;br&gt;&lt;br&gt;&lt;br&gt;&lt;br&gt;&lt;br&gt;&lt;br&gt;&lt;br&gt;&lt;br&gt;&lt;br&gt;&lt;br&gt;&lt;br&gt;&lt;br&gt;&lt;br&gt;&lt;br&gt;&lt;br&gt;&lt;br&gt;&lt;br&gt;&lt;br&gt;&lt;br&gt;&lt;br&gt;" style="rounded=0;whiteSpace=wrap;html=1;fillColor=#f5f5f5;strokeColor=#666666;fontColor=#333333;" parent="1" vertex="1">
          <mxGeometry x="-230" y="20" width="870" height="660" as="geometry" />
        </mxCell>
        <mxCell id="tDpFDf1y066-vSk2hxzO-27" style="edgeStyle=orthogonalEdgeStyle;rounded=0;orthogonalLoop=1;jettySize=auto;html=1;startArrow=classic;startFill=1;entryX=0.883;entryY=-0.033;entryDx=0;entryDy=0;entryPerimeter=0;" parent="1" source="tDpFDf1y066-vSk2hxzO-15" target="tDpFDf1y066-vSk2hxzO-18" edge="1">
          <mxGeometry relative="1" as="geometry">
            <mxPoint x="542" y="340" as="sourcePoint" />
            <Array as="points">
              <mxPoint x="542" y="455" />
              <mxPoint x="526" y="455" />
            </Array>
          </mxGeometry>
        </mxCell>
        <mxCell id="tDpFDf1y066-vSk2hxzO-15" value="QUEEN-V1" style="rounded=0;whiteSpace=wrap;html=1;fillColor=#e1d5e7;strokeColor=#9673a6;" parent="1" vertex="1">
          <mxGeometry x="340" y="270" width="270" height="60" as="geometry" />
        </mxCell>
        <mxCell id="tDpFDf1y066-vSk2hxzO-18" value="indexeddb partagé (même modèle abstrait orienté document)" style="rounded=0;whiteSpace=wrap;html=1;fillColor=#d5e8d4;strokeColor=#82b366;" parent="1" vertex="1">
          <mxGeometry x="-183" y="580" width="803" height="60" as="geometry" />
        </mxCell>
        <mxCell id="tDpFDf1y066-vSk2hxzO-24" style="edgeStyle=orthogonalEdgeStyle;rounded=0;orthogonalLoop=1;jettySize=auto;html=1;exitX=0.5;exitY=1;exitDx=0;exitDy=0;startArrow=classic;startFill=1;" parent="1" source="tDpFDf1y066-vSk2hxzO-19" target="tDpFDf1y066-vSk2hxzO-21" edge="1">
          <mxGeometry relative="1" as="geometry" />
        </mxCell>
        <mxCell id="tDpFDf1y066-vSk2hxzO-36" style="edgeStyle=orthogonalEdgeStyle;rounded=0;orthogonalLoop=1;jettySize=auto;html=1;exitX=1;exitY=0.5;exitDx=0;exitDy=0;" parent="1" source="tDpFDf1y066-vSk2hxzO-19" target="tDpFDf1y066-vSk2hxzO-35" edge="1">
          <mxGeometry relative="1" as="geometry" />
        </mxCell>
        <mxCell id="tDpFDf1y066-vSk2hxzO-19" value="Redirect" style="rounded=0;whiteSpace=wrap;html=1;fillColor=#f5f5f5;strokeColor=#666666;fontColor=#333333;" parent="1" vertex="1">
          <mxGeometry x="-180" y="130" width="190" height="60" as="geometry" />
        </mxCell>
        <mxCell id="tDpFDf1y066-vSk2hxzO-42" style="edgeStyle=orthogonalEdgeStyle;rounded=0;orthogonalLoop=1;jettySize=auto;html=1;exitX=0.5;exitY=1;exitDx=0;exitDy=0;entryX=0.122;entryY=0;entryDx=0;entryDy=0;entryPerimeter=0;" parent="1" source="tDpFDf1y066-vSk2hxzO-21" target="tDpFDf1y066-vSk2hxzO-18" edge="1">
          <mxGeometry relative="1" as="geometry" />
        </mxCell>
        <mxCell id="tDpFDf1y066-vSk2hxzO-21" value="Persistence" style="rounded=0;whiteSpace=wrap;html=1;fillColor=#f5f5f5;strokeColor=#666666;fontColor=#333333;" parent="1" vertex="1">
          <mxGeometry x="-180" y="480" width="190" height="60" as="geometry" />
        </mxCell>
        <mxCell id="tDpFDf1y066-vSk2hxzO-23" value="" style="endArrow=classic;html=1;rounded=0;exitX=1.025;exitY=0.331;exitDx=0;exitDy=0;exitPerimeter=0;entryX=0;entryY=0.5;entryDx=0;entryDy=0;" parent="1" source="tDpFDf1y066-vSk2hxzO-13" target="tDpFDf1y066-vSk2hxzO-19" edge="1">
          <mxGeometry width="50" height="50" relative="1" as="geometry">
            <mxPoint x="-140" y="270" as="sourcePoint" />
            <mxPoint x="-90" y="220" as="targetPoint" />
          </mxGeometry>
        </mxCell>
        <mxCell id="tDpFDf1y066-vSk2hxzO-32" style="edgeStyle=orthogonalEdgeStyle;rounded=0;orthogonalLoop=1;jettySize=auto;html=1;exitX=0.5;exitY=1;exitDx=0;exitDy=0;entryX=1;entryY=0.5;entryDx=0;entryDy=0;startArrow=classic;startFill=1;" parent="1" source="tDpFDf1y066-vSk2hxzO-28" target="tDpFDf1y066-vSk2hxzO-21" edge="1">
          <mxGeometry relative="1" as="geometry" />
        </mxCell>
        <mxCell id="tDpFDf1y066-vSk2hxzO-28" value="QUEEN-V2 light" style="rounded=0;whiteSpace=wrap;html=1;fillColor=#dae8fc;strokeColor=#6c8ebf;" parent="1" vertex="1">
          <mxGeometry x="50" y="270" width="270" height="60" as="geometry" />
        </mxCell>
        <mxCell id="tDpFDf1y066-vSk2hxzO-37" style="edgeStyle=orthogonalEdgeStyle;rounded=0;orthogonalLoop=1;jettySize=auto;html=1;exitX=0.5;exitY=1;exitDx=0;exitDy=0;entryX=0.5;entryY=0;entryDx=0;entryDy=0;" parent="1" source="tDpFDf1y066-vSk2hxzO-35" target="tDpFDf1y066-vSk2hxzO-28" edge="1">
          <mxGeometry relative="1" as="geometry" />
        </mxCell>
        <mxCell id="tDpFDf1y066-vSk2hxzO-38" style="edgeStyle=orthogonalEdgeStyle;rounded=0;orthogonalLoop=1;jettySize=auto;html=1;exitX=1;exitY=0.5;exitDx=0;exitDy=0;" parent="1" source="tDpFDf1y066-vSk2hxzO-35" target="tDpFDf1y066-vSk2hxzO-15" edge="1">
          <mxGeometry relative="1" as="geometry" />
        </mxCell>
        <mxCell id="tDpFDf1y066-vSk2hxzO-35" value="" style="rhombus;whiteSpace=wrap;html=1;fillColor=#f5f5f5;strokeColor=#666666;fontColor=#333333;" parent="1" vertex="1">
          <mxGeometry x="150" y="140" width="70" height="40" as="geometry" />
        </mxCell>
        <mxCell id="tDpFDf1y066-vSk2hxzO-39" value="/queen/survey-unit/{id}" style="text;html=1;strokeColor=none;fillColor=none;align=center;verticalAlign=middle;whiteSpace=wrap;rounded=0;fontSize=16;" parent="1" vertex="1">
          <mxGeometry x="-450" y="120" width="240" height="30" as="geometry" />
        </mxCell>
        <mxCell id="tDpFDf1y066-vSk2hxzO-40" value="lunaticModel : V1" style="text;html=1;strokeColor=none;fillColor=none;align=center;verticalAlign=middle;whiteSpace=wrap;rounded=0;" parent="1" vertex="1">
          <mxGeometry x="360" y="190" width="130" height="30" as="geometry" />
        </mxCell>
        <mxCell id="tDpFDf1y066-vSk2hxzO-41" value="lunaticModel : V2" style="text;html=1;strokeColor=none;fillColor=none;align=center;verticalAlign=middle;whiteSpace=wrap;rounded=0;" parent="1" vertex="1">
          <mxGeometry x="50" y="210" width="130" height="30" as="geometry" />
        </mxCell>
        <mxCell id="tDpFDf1y066-vSk2hxzO-43" value="questionnaireModel associé à l&#39;unité-enquêtée" style="text;html=1;strokeColor=none;fillColor=none;align=center;verticalAlign=middle;whiteSpace=wrap;rounded=0;" parent="1" vertex="1">
          <mxGeometry x="-200" y="310" width="180" height="30" as="geometry" />
        </mxCell>
        <mxCell id="tDpFDf1y066-vSk2hxzO-44" value="PEARL&lt;br&gt;&lt;br&gt;&lt;br&gt;" style="rounded=0;whiteSpace=wrap;html=1;" parent="1" vertex="1">
          <mxGeometry x="-550" y="810" width="120" height="210" as="geometry" />
        </mxCell>
        <mxCell id="tDpFDf1y066-vSk2hxzO-45" value="DRAMA-QUEEN&lt;br&gt;&lt;br&gt;&lt;br&gt;&lt;br&gt;&lt;br&gt;&lt;br&gt;&lt;br&gt;&lt;br&gt;&lt;br&gt;&lt;br&gt;&lt;br&gt;&lt;br&gt;&lt;br&gt;&lt;br&gt;&lt;br&gt;&lt;br&gt;&lt;br&gt;&lt;br&gt;&lt;br&gt;&lt;br&gt;&lt;br&gt;&lt;br&gt;&lt;br&gt;&lt;br&gt;&lt;br&gt;&lt;br&gt;&lt;br&gt;&lt;br&gt;&lt;br&gt;&lt;br&gt;" style="rounded=0;whiteSpace=wrap;html=1;fillColor=#f5f5f5;fontColor=#333333;strokeColor=#666666;" parent="1" vertex="1">
          <mxGeometry x="-220" y="740" width="870" height="450" as="geometry" />
        </mxCell>
        <mxCell id="tDpFDf1y066-vSk2hxzO-70" style="edgeStyle=orthogonalEdgeStyle;rounded=0;orthogonalLoop=1;jettySize=auto;html=1;exitX=0.5;exitY=1;exitDx=0;exitDy=0;entryX=0.816;entryY=-0.071;entryDx=0;entryDy=0;entryPerimeter=0;" parent="1" source="tDpFDf1y066-vSk2hxzO-47" target="tDpFDf1y066-vSk2hxzO-69" edge="1">
          <mxGeometry relative="1" as="geometry" />
        </mxCell>
        <mxCell id="tDpFDf1y066-vSk2hxzO-47" value="QUEEN-V1" style="rounded=0;whiteSpace=wrap;html=1;fillColor=#e1d5e7;strokeColor=#9673a6;" parent="1" vertex="1">
          <mxGeometry x="350" y="850" width="270" height="60" as="geometry" />
        </mxCell>
        <mxCell id="tDpFDf1y066-vSk2hxzO-50" style="edgeStyle=orthogonalEdgeStyle;rounded=0;orthogonalLoop=1;jettySize=auto;html=1;exitX=1;exitY=0.5;exitDx=0;exitDy=0;" parent="1" source="tDpFDf1y066-vSk2hxzO-51" target="tDpFDf1y066-vSk2hxzO-59" edge="1">
          <mxGeometry relative="1" as="geometry" />
        </mxCell>
        <mxCell id="tDpFDf1y066-vSk2hxzO-51" value="I-Synchro" style="rounded=0;whiteSpace=wrap;html=1;fillColor=#f5f5f5;fontColor=#333333;strokeColor=#666666;" parent="1" vertex="1">
          <mxGeometry x="-170" y="850" width="190" height="60" as="geometry" />
        </mxCell>
        <mxCell id="tDpFDf1y066-vSk2hxzO-54" value="" style="endArrow=classic;html=1;rounded=0;exitX=1.025;exitY=0.331;exitDx=0;exitDy=0;exitPerimeter=0;entryX=0;entryY=0.5;entryDx=0;entryDy=0;" parent="1" source="tDpFDf1y066-vSk2hxzO-44" target="tDpFDf1y066-vSk2hxzO-51" edge="1">
          <mxGeometry width="50" height="50" relative="1" as="geometry">
            <mxPoint x="-130" y="990" as="sourcePoint" />
            <mxPoint x="-80" y="940" as="targetPoint" />
          </mxGeometry>
        </mxCell>
        <mxCell id="tDpFDf1y066-vSk2hxzO-58" style="edgeStyle=orthogonalEdgeStyle;rounded=0;orthogonalLoop=1;jettySize=auto;html=1;exitX=1;exitY=0.5;exitDx=0;exitDy=0;" parent="1" source="tDpFDf1y066-vSk2hxzO-59" target="tDpFDf1y066-vSk2hxzO-47" edge="1">
          <mxGeometry relative="1" as="geometry" />
        </mxCell>
        <mxCell id="tDpFDf1y066-vSk2hxzO-67" style="edgeStyle=orthogonalEdgeStyle;rounded=0;orthogonalLoop=1;jettySize=auto;html=1;exitX=0.5;exitY=1;exitDx=0;exitDy=0;entryX=0.5;entryY=0;entryDx=0;entryDy=0;" parent="1" source="tDpFDf1y066-vSk2hxzO-59" target="tDpFDf1y066-vSk2hxzO-66" edge="1">
          <mxGeometry relative="1" as="geometry" />
        </mxCell>
        <mxCell id="tDpFDf1y066-vSk2hxzO-59" value="" style="rhombus;whiteSpace=wrap;html=1;" parent="1" vertex="1">
          <mxGeometry x="160" y="860" width="70" height="40" as="geometry" />
        </mxCell>
        <mxCell id="tDpFDf1y066-vSk2hxzO-60" value="/queen/synchronize" style="text;html=1;strokeColor=none;fillColor=none;align=center;verticalAlign=middle;whiteSpace=wrap;rounded=0;fontSize=16;" parent="1" vertex="1">
          <mxGeometry x="-440" y="840" width="240" height="30" as="geometry" />
        </mxCell>
        <mxCell id="tDpFDf1y066-vSk2hxzO-64" value="Ouverture d&#39;un questionnaire par Pearl" style="text;html=1;strokeColor=none;fillColor=none;align=center;verticalAlign=middle;whiteSpace=wrap;rounded=0;fontSize=30;" parent="1" vertex="1">
          <mxGeometry x="-780" y="30" width="520" height="30" as="geometry" />
        </mxCell>
        <mxCell id="tDpFDf1y066-vSk2hxzO-65" value="&lt;b style=&quot;font-size: 18px;&quot;&gt;Si Queen V1 dans DramaQueen :&lt;/b&gt;&amp;nbsp;délégation de la synchro dans Queen V1" style="text;html=1;strokeColor=none;fillColor=none;align=center;verticalAlign=middle;whiteSpace=wrap;rounded=0;fontSize=18;" parent="1" vertex="1">
          <mxGeometry x="270" y="800" width="350" height="30" as="geometry" />
        </mxCell>
        <mxCell id="tDpFDf1y066-vSk2hxzO-71" style="edgeStyle=orthogonalEdgeStyle;rounded=0;orthogonalLoop=1;jettySize=auto;html=1;exitX=0.5;exitY=1;exitDx=0;exitDy=0;entryX=0.456;entryY=-0.012;entryDx=0;entryDy=0;entryPerimeter=0;" parent="1" source="tDpFDf1y066-vSk2hxzO-66" target="tDpFDf1y066-vSk2hxzO-69" edge="1">
          <mxGeometry relative="1" as="geometry" />
        </mxCell>
        <mxCell id="tDpFDf1y066-vSk2hxzO-66" value="Synchro DramaQueen" style="rounded=0;whiteSpace=wrap;html=1;fillColor=#f5f5f5;fontColor=#333333;strokeColor=#666666;" parent="1" vertex="1">
          <mxGeometry x="100" y="980" width="190" height="60" as="geometry" />
        </mxCell>
        <mxCell id="tDpFDf1y066-vSk2hxzO-68" value="&lt;b style=&quot;font-size: 18px;&quot;&gt;Sinon&lt;/b&gt;" style="text;html=1;strokeColor=none;fillColor=none;align=center;verticalAlign=middle;whiteSpace=wrap;rounded=0;fontSize=18;" parent="1" vertex="1">
          <mxGeometry x="110" y="900" width="70" height="30" as="geometry" />
        </mxCell>
        <mxCell id="tDpFDf1y066-vSk2hxzO-69" value="indexeddb partagé (même modèle abstrait orienté document)" style="rounded=0;whiteSpace=wrap;html=1;fillColor=#d5e8d4;strokeColor=#82b366;" parent="1" vertex="1">
          <mxGeometry x="-170" y="1110" width="803" height="60" as="geometry" />
        </mxCell>
        <mxCell id="tDpFDf1y066-vSk2hxzO-73" value="Synchronisation de Queen" style="text;html=1;strokeColor=none;fillColor=none;align=center;verticalAlign=middle;whiteSpace=wrap;rounded=0;fontSize=30;" parent="1" vertex="1">
          <mxGeometry x="-646.5" y="760" width="370" height="30" as="geometry" />
        </mxCell>
        <mxCell id="tDpFDf1y066-vSk2hxzO-74" value="PEARL&lt;br&gt;&lt;br&gt;&lt;br&gt;" style="rounded=0;whiteSpace=wrap;html=1;" parent="1" vertex="1">
          <mxGeometry x="-521.5" y="1450" width="120" height="210" as="geometry" />
        </mxCell>
        <mxCell id="tDpFDf1y066-vSk2hxzO-75" value="DRAMA-QUEEN&lt;br&gt;&lt;br&gt;&lt;br&gt;&lt;br&gt;&lt;br&gt;&lt;br&gt;&lt;br&gt;&lt;br&gt;&lt;br&gt;&lt;br&gt;&lt;br&gt;&lt;br&gt;&lt;br&gt;&lt;br&gt;&lt;br&gt;&lt;br&gt;&lt;br&gt;" style="rounded=0;whiteSpace=wrap;html=1;fillColor=#f5f5f5;fontColor=#333333;strokeColor=#666666;" parent="1" vertex="1">
          <mxGeometry x="-230" y="1455" width="880" height="200" as="geometry" />
        </mxCell>
        <mxCell id="tDpFDf1y066-vSk2hxzO-93" style="edgeStyle=orthogonalEdgeStyle;rounded=0;orthogonalLoop=1;jettySize=auto;html=1;exitX=0;exitY=0.5;exitDx=0;exitDy=0;entryX=1;entryY=0.25;entryDx=0;entryDy=0;" parent="1" source="tDpFDf1y066-vSk2hxzO-77" target="tDpFDf1y066-vSk2hxzO-74" edge="1">
          <mxGeometry relative="1" as="geometry" />
        </mxCell>
        <mxCell id="tDpFDf1y066-vSk2hxzO-77" value="QUEEN-V1" style="rounded=0;whiteSpace=wrap;html=1;fillColor=#e1d5e7;strokeColor=#9673a6;fontSize=15;" parent="1" vertex="1">
          <mxGeometry x="320" y="1500" width="270" height="60" as="geometry" />
        </mxCell>
        <mxCell id="tDpFDf1y066-vSk2hxzO-95" style="edgeStyle=orthogonalEdgeStyle;rounded=0;orthogonalLoop=1;jettySize=auto;html=1;exitX=0;exitY=0.5;exitDx=0;exitDy=0;entryX=1;entryY=0.75;entryDx=0;entryDy=0;" parent="1" source="tDpFDf1y066-vSk2hxzO-79" target="tDpFDf1y066-vSk2hxzO-74" edge="1">
          <mxGeometry relative="1" as="geometry" />
        </mxCell>
        <mxCell id="tDpFDf1y066-vSk2hxzO-79" value="I-Event" style="rounded=0;whiteSpace=wrap;html=1;fillColor=#f5f5f5;fontColor=#333333;strokeColor=#666666;fontSize=16;" parent="1" vertex="1">
          <mxGeometry x="-190" y="1580" width="190" height="60" as="geometry" />
        </mxCell>
        <mxCell id="tDpFDf1y066-vSk2hxzO-94" style="edgeStyle=orthogonalEdgeStyle;rounded=0;orthogonalLoop=1;jettySize=auto;html=1;exitX=0;exitY=0.5;exitDx=0;exitDy=0;" parent="1" source="tDpFDf1y066-vSk2hxzO-90" target="tDpFDf1y066-vSk2hxzO-79" edge="1">
          <mxGeometry relative="1" as="geometry" />
        </mxCell>
        <mxCell id="tDpFDf1y066-vSk2hxzO-90" value="QUEEN-V2 light" style="rounded=0;whiteSpace=wrap;html=1;fillColor=#dae8fc;strokeColor=#6c8ebf;fontSize=15;" parent="1" vertex="1">
          <mxGeometry x="320" y="1580" width="270" height="60" as="geometry" />
        </mxCell>
        <mxCell id="tDpFDf1y066-vSk2hxzO-91" value="Communication avec Pearl" style="text;html=1;strokeColor=none;fillColor=none;align=center;verticalAlign=middle;whiteSpace=wrap;rounded=0;fontSize=30;" parent="1" vertex="1">
          <mxGeometry x="-630" y="1360" width="391.5" height="30" as="geometry" />
        </mxCell>
        <mxCell id="tDpFDf1y066-vSk2hxzO-96" value="Envoi d&#39;Event classique pour Pearl directement" style="text;html=1;strokeColor=none;fillColor=none;align=center;verticalAlign=middle;whiteSpace=wrap;rounded=0;fontSize=16;" parent="1" vertex="1">
          <mxGeometry x="-150" y="1470" width="380" height="30" as="geometry" />
        </mxCell>
        <mxCell id="tDpFDf1y066-vSk2hxzO-97" value="Envoi d&#39;évènement pour DramaQueen" style="text;html=1;strokeColor=none;fillColor=none;align=center;verticalAlign=middle;whiteSpace=wrap;rounded=0;fontSize=16;" parent="1" vertex="1">
          <mxGeometry x="20" y="1570" width="240" height="30" as="geometry" />
        </mxCell>
        <mxCell id="tDpFDf1y066-vSk2hxzO-98" value="Transmission de l&#39;Event vers Pearl" style="text;html=1;strokeColor=none;fillColor=none;align=center;verticalAlign=middle;whiteSpace=wrap;rounded=0;fontSize=16;" parent="1" vertex="1">
          <mxGeometry x="-410" y="1625" width="240" height="30" as="geometry" />
        </mxCell>
        <mxCell id="tDpFDf1y066-vSk2hxzO-109" value="Authentification à l&#39;ouverture d&#39;un questionnaire" style="text;html=1;strokeColor=none;fillColor=none;align=center;verticalAlign=middle;whiteSpace=wrap;rounded=0;fontSize=30;" parent="1" vertex="1">
          <mxGeometry x="-601.5" y="1800" width="391.5" height="30" as="geometry" />
        </mxCell>
        <mxCell id="tDpFDf1y066-vSk2hxzO-113" value="PEARL&lt;br&gt;&lt;br&gt;&lt;br&gt;" style="rounded=0;whiteSpace=wrap;html=1;" parent="1" vertex="1">
          <mxGeometry x="-530" y="1873" width="120" height="210" as="geometry" />
        </mxCell>
        <mxCell id="tDpFDf1y066-vSk2hxzO-114" value="DRAMA-QUEEN&lt;br&gt;&lt;br&gt;&lt;br&gt;&lt;br&gt;&lt;br&gt;&lt;br&gt;&lt;br&gt;&lt;br&gt;&lt;br&gt;&lt;br&gt;&lt;br&gt;&lt;br&gt;&lt;br&gt;&lt;br&gt;&lt;br&gt;&lt;br&gt;&lt;br&gt;&lt;br&gt;&lt;br&gt;&lt;br&gt;&lt;br&gt;&lt;br&gt;&lt;br&gt;&lt;br&gt;&lt;br&gt;" style="rounded=0;whiteSpace=wrap;html=1;fillColor=#f5f5f5;strokeColor=#666666;fontColor=#333333;" parent="1" vertex="1">
          <mxGeometry x="-200" y="1803" width="870" height="377" as="geometry" />
        </mxCell>
        <mxCell id="tDpFDf1y066-vSk2hxzO-116" value="QUEEN-V1&lt;br&gt;&lt;br&gt;&lt;br&gt;&lt;br&gt;&lt;br&gt;" style="rounded=0;whiteSpace=wrap;html=1;fillColor=#e1d5e7;strokeColor=#9673a6;" parent="1" vertex="1">
          <mxGeometry x="370" y="2060" width="270" height="100" as="geometry" />
        </mxCell>
        <mxCell id="tDpFDf1y066-vSk2hxzO-118" style="edgeStyle=orthogonalEdgeStyle;rounded=0;orthogonalLoop=1;jettySize=auto;html=1;exitX=0.5;exitY=1;exitDx=0;exitDy=0;startArrow=classic;startFill=1;" parent="1" source="tDpFDf1y066-vSk2hxzO-120" target="tDpFDf1y066-vSk2hxzO-122" edge="1">
          <mxGeometry relative="1" as="geometry" />
        </mxCell>
        <mxCell id="tDpFDf1y066-vSk2hxzO-119" style="edgeStyle=orthogonalEdgeStyle;rounded=0;orthogonalLoop=1;jettySize=auto;html=1;exitX=1;exitY=0.5;exitDx=0;exitDy=0;" parent="1" source="tDpFDf1y066-vSk2hxzO-120" target="tDpFDf1y066-vSk2hxzO-128" edge="1">
          <mxGeometry relative="1" as="geometry" />
        </mxCell>
        <mxCell id="tDpFDf1y066-vSk2hxzO-120" value="Redirect" style="rounded=0;whiteSpace=wrap;html=1;fillColor=#f5f5f5;strokeColor=#666666;fontColor=#333333;" parent="1" vertex="1">
          <mxGeometry x="-150" y="1913" width="190" height="60" as="geometry" />
        </mxCell>
        <mxCell id="tDpFDf1y066-vSk2hxzO-122" value="Persistence" style="rounded=0;whiteSpace=wrap;html=1;fillColor=#f5f5f5;strokeColor=#666666;fontColor=#333333;" parent="1" vertex="1">
          <mxGeometry x="-150" y="2103" width="190" height="60" as="geometry" />
        </mxCell>
        <mxCell id="tDpFDf1y066-vSk2hxzO-123" value="" style="endArrow=classic;html=1;rounded=0;exitX=1.025;exitY=0.331;exitDx=0;exitDy=0;exitPerimeter=0;entryX=0;entryY=0.5;entryDx=0;entryDy=0;" parent="1" source="tDpFDf1y066-vSk2hxzO-113" target="tDpFDf1y066-vSk2hxzO-120" edge="1">
          <mxGeometry width="50" height="50" relative="1" as="geometry">
            <mxPoint x="-110" y="2053" as="sourcePoint" />
            <mxPoint x="-60" y="2003" as="targetPoint" />
          </mxGeometry>
        </mxCell>
        <mxCell id="tDpFDf1y066-vSk2hxzO-126" style="edgeStyle=orthogonalEdgeStyle;rounded=0;orthogonalLoop=1;jettySize=auto;html=1;exitX=0.5;exitY=1;exitDx=0;exitDy=0;entryX=0.5;entryY=0;entryDx=0;entryDy=0;" parent="1" source="tDpFDf1y066-vSk2hxzO-128" target="tDpFDf1y066-vSk2hxzO-134" edge="1">
          <mxGeometry relative="1" as="geometry">
            <mxPoint x="215" y="2050" as="targetPoint" />
          </mxGeometry>
        </mxCell>
        <mxCell id="tDpFDf1y066-vSk2hxzO-127" style="edgeStyle=orthogonalEdgeStyle;rounded=0;orthogonalLoop=1;jettySize=auto;html=1;exitX=1;exitY=0.5;exitDx=0;exitDy=0;entryX=0.5;entryY=0;entryDx=0;entryDy=0;entryPerimeter=0;" parent="1" source="tDpFDf1y066-vSk2hxzO-128" edge="1">
          <mxGeometry relative="1" as="geometry">
            <mxPoint x="505" y="2060" as="targetPoint" />
          </mxGeometry>
        </mxCell>
        <mxCell id="tDpFDf1y066-vSk2hxzO-128" value="" style="rhombus;whiteSpace=wrap;html=1;fillColor=#f5f5f5;strokeColor=#666666;fontColor=#333333;" parent="1" vertex="1">
          <mxGeometry x="180" y="1923" width="70" height="40" as="geometry" />
        </mxCell>
        <mxCell id="tDpFDf1y066-vSk2hxzO-129" value="/queen/survey-unit/{id}" style="text;html=1;strokeColor=none;fillColor=none;align=center;verticalAlign=middle;whiteSpace=wrap;rounded=0;fontSize=16;" parent="1" vertex="1">
          <mxGeometry x="-420" y="1903" width="240" height="30" as="geometry" />
        </mxCell>
        <mxCell id="tDpFDf1y066-vSk2hxzO-130" value="lunaticModel : V1" style="text;html=1;strokeColor=none;fillColor=none;align=center;verticalAlign=middle;whiteSpace=wrap;rounded=0;" parent="1" vertex="1">
          <mxGeometry x="390" y="1950" width="130" height="30" as="geometry" />
        </mxCell>
        <mxCell id="tDpFDf1y066-vSk2hxzO-131" value="lunaticModel : V2" style="text;html=1;strokeColor=none;fillColor=none;align=center;verticalAlign=middle;whiteSpace=wrap;rounded=0;" parent="1" vertex="1">
          <mxGeometry x="75" y="1950" width="130" height="30" as="geometry" />
        </mxCell>
        <mxCell id="tDpFDf1y066-vSk2hxzO-132" value="questionnaireModel associé à l&#39;unité-enquêtée" style="text;html=1;strokeColor=none;fillColor=none;align=center;verticalAlign=middle;whiteSpace=wrap;rounded=0;" parent="1" vertex="1">
          <mxGeometry x="-170" y="2053" width="180" height="30" as="geometry" />
        </mxCell>
        <mxCell id="tDpFDf1y066-vSk2hxzO-134" value="Auth - DramaQueen&lt;br&gt;&lt;br&gt;&lt;br&gt;&lt;br&gt;&lt;br&gt;&lt;br&gt;" style="rounded=0;whiteSpace=wrap;html=1;fillColor=#f5f5f5;fontColor=#333333;strokeColor=#666666;" parent="1" vertex="1">
          <mxGeometry x="80" y="2060" width="270" height="100" as="geometry" />
        </mxCell>
        <mxCell id="tDpFDf1y066-vSk2hxzO-125" value="QUEEN-V2 light" style="rounded=0;whiteSpace=wrap;html=1;fillColor=#dae8fc;strokeColor=#6c8ebf;" parent="1" vertex="1">
          <mxGeometry x="90" y="2090" width="250" height="60" as="geometry" />
        </mxCell>
        <mxCell id="tDpFDf1y066-vSk2hxzO-155" value="Auth Queen-V1" style="rounded=0;whiteSpace=wrap;html=1;fillColor=#e1d5e7;strokeColor=#9673a6;" parent="1" vertex="1">
          <mxGeometry x="450" y="2095" width="110" height="50" as="geometry" />
        </mxCell>
      </root>
    </mxGraphModel>
  </diagram>
</mxfile>
